<svg width="25" height="25" viewBox="0 0 25 25" fill="none" xmlns="http://www.w3.org/2000/svg">
<path d="M12.5 25C5.60465 25 0 19.3953 0 12.5C0 5.60465 5.60465 0 12.5 0C19.3953 0 25 5.60465 25 12.5C25 19.3953 19.3953 25 12.5 25ZM12.5 1.74419C6.56977 1.74419 1.74419 6.56977 1.74419 12.5C1.74419 18.4302 6.56977 23.2558 12.5 23.2558C18.4302 23.2558 23.2558 18.4302 23.2558 12.5C23.2558 6.56977 18.4302 1.74419 12.5 1.74419Z" fill="#272727"/>
<path d="M12.5029 10.7553C12.9797 10.7553 13.375 11.1507 13.375 11.6274V17.4414C13.375 17.9181 12.9797 18.3135 12.5029 18.3135C12.0262 18.3135 11.6308 17.9181 11.6308 17.4414V11.6274C11.6308 11.1507 12.0262 10.7553 12.5029 10.7553Z" fill="#272727"/>
<path d="M12.5013 6.97613C12.6524 6.97613 12.8036 7.01101 12.9431 7.06915C13.0827 7.12729 13.2106 7.20869 13.3269 7.31334C13.4315 7.42962 13.5129 7.5459 13.571 7.69706C13.6292 7.8366 13.6641 7.98776 13.6641 8.13892C13.6641 8.29008 13.6292 8.44125 13.571 8.58078C13.5129 8.72032 13.4315 8.84822 13.3269 8.9645C13.2106 9.06915 13.0827 9.15055 12.9431 9.20869C12.6641 9.32497 12.3385 9.32497 12.0594 9.20869C11.9199 9.15055 11.792 9.06915 11.6757 8.9645C11.571 8.84822 11.4896 8.72032 11.4315 8.58078C11.3734 8.44125 11.3385 8.29008 11.3385 8.13892C11.3385 7.98776 11.3734 7.8366 11.4315 7.69706C11.4896 7.5459 11.571 7.42962 11.6757 7.31334C11.792 7.20869 11.9199 7.12729 12.0594 7.06915C12.1989 7.01101 12.3501 6.97613 12.5013 6.97613Z" fill="#272727"/>
</svg>
