<svg width="25" height="25" viewBox="0 0 25 25" fill="none" xmlns="http://www.w3.org/2000/svg">
<path d="M12.4987 23.7601C11.7799 23.7601 11.1029 23.3955 10.6237 22.7601L9.0612 20.6768C9.02995 20.6351 8.90495 20.583 8.85286 20.5726H8.33203C3.98828 20.5726 1.30078 19.3955 1.30078 13.5413V8.33301C1.30078 3.72884 3.72786 1.30176 8.33203 1.30176H16.6654C21.2695 1.30176 23.6966 3.72884 23.6966 8.33301V13.5413C23.6966 18.1455 21.2695 20.5726 16.6654 20.5726H16.1445C16.0612 20.5726 15.9883 20.6143 15.9362 20.6768L14.3737 22.7601C13.8945 23.3955 13.2174 23.7601 12.4987 23.7601ZM8.33203 2.86426C4.60286 2.86426 2.86328 4.60384 2.86328 8.33301V13.5413C2.86328 18.2497 4.47786 19.0101 8.33203 19.0101H8.85286C9.38411 19.0101 9.98828 19.3122 10.3112 19.7393L11.8737 21.8226C12.2383 22.3018 12.7591 22.3018 13.1237 21.8226L14.6862 19.7393C15.0299 19.2809 15.5716 19.0101 16.1445 19.0101H16.6654C20.3945 19.0101 22.1341 17.2705 22.1341 13.5413V8.33301C22.1341 4.60384 20.3945 2.86426 16.6654 2.86426H8.33203Z" fill="#272727"/>
<path d="M17.7096 9.11426H7.29297C6.86589 9.11426 6.51172 8.76009 6.51172 8.33301C6.51172 7.90592 6.86589 7.55176 7.29297 7.55176H17.7096C18.1367 7.55176 18.4909 7.90592 18.4909 8.33301C18.4909 8.76009 18.1367 9.11426 17.7096 9.11426Z" fill="#272727"/>
<path d="M13.543 14.3232H7.29297C6.86589 14.3232 6.51172 13.9691 6.51172 13.542C6.51172 13.1149 6.86589 12.7607 7.29297 12.7607H13.543C13.9701 12.7607 14.3242 13.1149 14.3242 13.542C14.3242 13.9691 13.9701 14.3232 13.543 14.3232Z" fill="#272727"/>
</svg>
