<svg width="25" height="25" viewBox="0 0 25 25" fill="none" xmlns="http://www.w3.org/2000/svg">
<path d="M12.5 25C5.60465 25 0 19.3953 0 12.5C0 5.60465 5.60465 0 12.5 0C19.3953 0 25 5.60465 25 12.5C25 19.3953 19.3953 25 12.5 25ZM12.5 1.74419C6.56977 1.74419 1.74419 6.56977 1.74419 12.5C1.74419 18.4302 6.56977 23.2558 12.5 23.2558C18.4302 23.2558 23.2558 18.4302 23.2558 12.5C23.2558 6.56977 18.4302 1.74419 12.5 1.74419Z" fill="#272727"/>
<path d="M9.01226 23.8365H7.84947C7.37273 23.8365 6.97738 23.4412 6.97738 22.9644C6.97738 22.4877 7.34947 22.104 7.82622 22.0923C6.00064 15.8598 6.00064 9.13885 7.82622 2.9063C7.34947 2.89467 6.97738 2.51095 6.97738 2.0342C6.97738 1.55746 7.37273 1.16211 7.84947 1.16211H9.01226C9.29133 1.16211 9.55877 1.30164 9.72157 1.52257C9.88436 1.75513 9.93087 2.04583 9.83785 2.31327C7.6518 8.88304 7.6518 16.1156 9.83785 22.697C9.93087 22.9644 9.88436 23.2551 9.72157 23.4877C9.55877 23.697 9.29133 23.8365 9.01226 23.8365Z" fill="#272727"/>
<path d="M15.9902 23.8376C15.8972 23.8376 15.8041 23.826 15.7111 23.7911C15.2576 23.6399 15.0018 23.1399 15.1646 22.6864C17.3506 16.1167 17.3506 8.88411 15.1646 2.30272C15.0134 1.84923 15.2576 1.34923 15.7111 1.19806C16.1762 1.0469 16.6646 1.29109 16.8158 1.74458C19.1297 8.67481 19.1297 16.3027 16.8158 23.2213C16.6995 23.605 16.3506 23.8376 15.9902 23.8376Z" fill="#272727"/>
<path d="M12.4993 18.5464C9.25513 18.5464 6.02257 18.0929 2.9063 17.1743C2.89467 17.6394 2.51095 18.0231 2.0342 18.0231C1.55746 18.0231 1.16211 17.6278 1.16211 17.151V15.9882C1.16211 15.7092 1.30164 15.4417 1.52257 15.2789C1.75513 15.1161 2.04583 15.0696 2.31327 15.1626C8.88304 17.3487 16.1272 17.3487 22.697 15.1626C22.9644 15.0696 23.2551 15.1161 23.4877 15.2789C23.7202 15.4417 23.8482 15.7092 23.8482 15.9882V17.151C23.8482 17.6278 23.4528 18.0231 22.9761 18.0231C22.4993 18.0231 22.1156 17.651 22.104 17.1743C18.9761 18.0929 15.7435 18.5464 12.4993 18.5464Z" fill="#272727"/>
<path d="M22.9668 9.88333C22.8738 9.88333 22.7807 9.87171 22.6877 9.83682C16.1179 7.65078 8.87375 7.65078 2.30398 9.83682C1.83887 9.98799 1.35049 9.7438 1.19933 9.29031C1.0598 8.8252 1.30398 8.33682 1.75747 8.18566C8.6877 5.87171 16.3156 5.87171 23.2342 8.18566C23.6877 8.33682 23.9435 8.83682 23.7807 9.29031C23.6761 9.65078 23.3272 9.88333 22.9668 9.88333Z" fill="#272727"/>
</svg>
