<svg width="25" height="25" viewBox="0 0 25 25" fill="none" xmlns="http://www.w3.org/2000/svg">
<path d="M15.9875 12.2098C15.5108 12.2098 15.1154 11.8145 15.1154 11.3377V10.1749C15.1154 8.47724 14.6968 7.55864 12.4991 7.55864C10.3015 7.55864 9.88286 8.47724 9.88286 10.1749V11.3377C9.88286 11.8145 9.48751 12.2098 9.01076 12.2098C8.53402 12.2098 8.13867 11.8145 8.13867 11.3377V10.1749C8.13867 9.09352 8.13867 5.81445 12.4991 5.81445C16.8596 5.81445 16.8596 9.09352 16.8596 10.1749V11.3377C16.8596 11.8145 16.4643 12.2098 15.9875 12.2098Z" fill="#272727"/>
<path d="M12.5014 16.3954C11.6409 16.3954 10.9316 15.6861 10.9316 14.8256C10.9316 13.9652 11.6409 13.2559 12.5014 13.2559C13.3618 13.2559 14.0711 13.9652 14.0711 14.8256C14.0711 15.6861 13.3618 16.3954 12.5014 16.3954ZM12.5014 14.6512C12.4084 14.6512 12.3269 14.7326 12.3269 14.8256C12.3269 15.0233 12.6758 15.0233 12.6758 14.8256C12.6758 14.7326 12.5944 14.6512 12.5014 14.6512Z" fill="#272727"/>
<path d="M15.4075 19.1858H9.59352C6.80283 19.1858 5.81445 18.1974 5.81445 15.4067V14.2439C5.81445 11.4532 6.80283 10.4648 9.59352 10.4648H15.4075C18.1982 10.4648 19.1865 11.4532 19.1865 14.2439V15.4067C19.1865 18.1974 18.1982 19.1858 15.4075 19.1858ZM9.59352 12.209C7.74469 12.209 7.55864 12.3951 7.55864 14.2439V15.4067C7.55864 17.2555 7.74469 17.4416 9.59352 17.4416H15.4075C17.2563 17.4416 17.4424 17.2555 17.4424 15.4067V14.2439C17.4424 12.3951 17.2563 12.209 15.4075 12.209H9.59352Z" fill="#272727"/>
<path d="M12.5 25C5.60465 25 0 19.3953 0 12.5C0 5.60465 5.60465 0 12.5 0C19.3953 0 25 5.60465 25 12.5C25 19.3953 19.3953 25 12.5 25ZM12.5 1.74419C6.56977 1.74419 1.74419 6.56977 1.74419 12.5C1.74419 18.4302 6.56977 23.2558 12.5 23.2558C18.4302 23.2558 23.2558 18.4302 23.2558 12.5C23.2558 6.56977 18.4302 1.74419 12.5 1.74419Z" fill="#272727"/>
</svg>
