<svg width="23" height="25" viewBox="0 0 23 25" fill="none" xmlns="http://www.w3.org/2000/svg">
<path d="M9.95322 18.2557C9.73229 18.2557 9.51136 18.1743 9.33694 17.9999L7.59275 16.2557C7.25554 15.9185 7.25554 15.3604 7.59275 15.0232C7.92996 14.686 8.4881 14.686 8.82531 15.0232L9.95322 16.1511L13.9881 12.1162C14.3253 11.779 14.8835 11.779 15.2207 12.1162C15.5579 12.4534 15.5579 13.0115 15.2207 13.3488L10.5695 17.9999C10.4067 18.1743 10.1742 18.2557 9.95322 18.2557Z" fill="#272727"/>
<path d="M13.6633 6.39537H9.01214C7.89586 6.39537 5.81445 6.39537 5.81445 3.19768C5.81445 0 7.89586 0 9.01214 0H13.6633C14.7796 0 16.861 0 16.861 3.19768C16.861 4.31397 16.861 6.39537 13.6633 6.39537ZM9.01214 1.74419C7.86097 1.74419 7.55864 1.74419 7.55864 3.19768C7.55864 4.65118 7.86097 4.65118 9.01214 4.65118H13.6633C15.1168 4.65118 15.1168 4.34885 15.1168 3.19768C15.1168 1.74419 14.8145 1.74419 13.6633 1.74419H9.01214Z" fill="#272727"/>
<path d="M14.8256 24.9999H7.84886C1.31396 24.9999 0 21.9999 0 17.1511V10.1743C0 4.87195 1.91861 2.6045 6.63956 2.36032C7.1163 2.33706 7.53491 2.69753 7.55816 3.1859C7.58142 3.67428 7.20932 4.06963 6.73258 4.09288C3.43024 4.27893 1.74419 5.2673 1.74419 10.1743V17.1511C1.74419 21.4534 2.59303 23.2557 7.84886 23.2557H14.8256C20.0815 23.2557 20.9303 21.4534 20.9303 17.1511V10.1743C20.9303 5.2673 19.2442 4.27893 15.9419 4.09288C15.4652 4.06963 15.0931 3.65102 15.1163 3.17427C15.1396 2.69753 15.5466 2.32543 16.0349 2.34869C20.7559 2.6045 22.6745 4.87195 22.6745 10.1627V17.1394C22.6745 21.9999 21.3605 24.9999 14.8256 24.9999Z" fill="#272727"/>
</svg>
